<svg xmlns="http://www.w3.org/2000/svg" xmlns:xlink="http://www.w3.org/1999/xlink" width="40" zoomAndPan="magnify" viewBox="0 0 30 30.000001" height="40" preserveAspectRatio="xMidYMid meet" version="1.0"><defs><clipPath id="45a9bf6a4c"><path d="M 0.484375 0 L 29.515625 0 L 29.515625 29.03125 L 0.484375 29.03125 Z M 0.484375 0 " clip-rule="nonzero"/></clipPath><clipPath id="cae5eedc33"><path d="M 0.484375 0 L 29.515625 0 L 29.515625 28.304688 L 0.484375 28.304688 Z M 0.484375 0 " clip-rule="nonzero"/></clipPath></defs><g clip-path="url(#45a9bf6a4c)"><path fill="#ffffff" d="M 0.484375 0 L 29.515625 0 L 29.515625 29.03125 L 0.484375 29.03125 Z M 0.484375 0 " fill-opacity="1" fill-rule="nonzero"/><path fill="#ffffff" d="M 0.484375 0 L 29.515625 0 L 29.515625 29.03125 L 0.484375 29.03125 Z M 0.484375 0 " fill-opacity="1" fill-rule="nonzero"/></g><g clip-path="url(#cae5eedc33)"><path fill="#002259" d="M 4.113281 0 L 3.75 0.726562 L 7.558594 2.902344 C 7.558594 4.71875 6.835938 6.167969 5.203125 7.078125 L 1.390625 4.898438 L 1.210938 5.261719 C 2.117188 7.984375 3.929688 9.796875 7.558594 9.796875 C 8.46875 9.796875 11.191406 12.519531 12.640625 13.972656 L 15.542969 11.070312 C 14.09375 9.617188 10.828125 6.351562 10.828125 5.445312 C 10.828125 2.175781 9.917969 0 4.113281 0 Z M 26.792969 0.90625 L 23.164062 3.449219 L 22.800781 4.898438 L 12.277344 15.421875 L 10.828125 14.515625 L 10.101562 15.242188 C 10.101562 17.417969 7.558594 18.507812 6.472656 18.507812 L 0.484375 24.496094 C 0.484375 26.308594 2.480469 28.304688 4.292969 28.304688 L 10.28125 22.320312 C 10.28125 21.230469 11.371094 18.691406 13.546875 18.691406 L 14.273438 17.964844 L 13.367188 16.511719 L 23.890625 5.988281 L 25.34375 5.625 L 27.882812 1.996094 Z M 17.722656 13.246094 L 14.820312 16.148438 C 16.996094 18.328125 19.898438 21.230469 19.898438 22.136719 C 19.898438 25.402344 20.804688 27.582031 26.613281 27.582031 L 26.976562 26.855469 L 23.164062 24.675781 C 23.164062 22.863281 23.890625 21.410156 25.523438 20.503906 L 29.335938 22.679688 L 29.515625 22.320312 C 28.609375 19.597656 26.792969 17.78125 23.164062 17.78125 C 22.257812 17.78125 19.898438 15.421875 17.722656 13.246094 Z M 17.722656 13.246094 " fill-opacity="1" fill-rule="nonzero"/></g></svg>